
<svg width="300" height="400" viewBox="0 0 300 400" fill="none" xmlns="http://www.w3.org/2000/svg">
  <rect width="300" height="400" fill="white"/>
  
  <!-- Header -->
  <rect width="300" height="80" fill="url(#blue-gradient)"/>
  <rect x="20" y="25" width="150" height="10" rx="2" fill="white"/>
  <rect x="20" y="45" width="100" height="6" rx="2" fill="#b3e0ff"/>
  <rect x="20" y="60" width="60" height="4" rx="2" fill="#b3e0ff"/>
  <rect x="90" y="60" width="60" height="4" rx="2" fill="#b3e0ff"/>
  
  <!-- Sidebar -->
  <rect width="100" height="320" y="80" fill="#e6f7ff"/>
  
  <!-- About Me -->
  <rect x="15" y="100" width="70" height="8" rx="2" fill="#333"/>
  <rect x="15" y="115" width="70" height="4" rx="2" fill="#666"/>
  <rect x="15" y="125" width="70" height="4" rx="2" fill="#666"/>
  
  <!-- Education -->
  <rect x="15" y="160" width="70" height="8" rx="2" fill="#333"/>
  <rect x="15" y="175" width="70" height="6" rx="2" fill="#333"/>
  <rect x="15" y="185" width="70" height="4" rx="2" fill="#666"/>
  <rect x="15" y="195" width="40" height="4" rx="2" fill="#999"/>
  
  <!-- Skills -->
  <rect x="15" y="230" width="70" height="8" rx="2" fill="#333"/>
  <rect x="15" y="245" width="30" height="15" rx="7.5" fill="white"/>
  <rect x="50" y="245" width="35" height="15" rx="7.5" fill="white"/>
  <rect x="15" y="265" width="40" height="15" rx="7.5" fill="white"/>
  <rect x="60" y="265" width="25" height="15" rx="7.5" fill="white"/>
  
  <!-- Main Content -->
  <rect x="120" y="100" width="160" height="8" rx="2" fill="#0EA5E9"/>
  
  <!-- Experience Item 1 -->
  <rect x="120" y="120" width="100" height="6" rx="2" fill="#333"/>
  <rect x="230" y="120" width="50" height="4" rx="2" fill="#999"/>
  <rect x="120" y="130" width="80" height="4" rx="2" fill="#0EA5E9"/>
  <rect x="230" y="130" width="30" height="4" rx="2" fill="#999"/>
  <rect x="120" y="140" width="160" height="4" rx="2" fill="#666"/>
  <rect x="120" y="150" width="160" height="4" rx="2" fill="#666"/>
  
  <!-- Experience Item 2 -->
  <rect x="120" y="170" width="100" height="6" rx="2" fill="#333"/>
  <rect x="230" y="170" width="50" height="4" rx="2" fill="#999"/>
  <rect x="120" y="180" width="80" height="4" rx="2" fill="#0EA5E9"/>
  <rect x="230" y="180" width="30" height="4" rx="2" fill="#999"/>
  <rect x="120" y="190" width="160" height="4" rx="2" fill="#666"/>
  <rect x="120" y="200" width="160" height="4" rx="2" fill="#666"/>
  
  <!-- Projects -->
  <rect x="120" y="230" width="160" height="8" rx="2" fill="#0EA5E9"/>
  
  <!-- Project Item -->
  <rect x="120" y="250" width="90" height="6" rx="2" fill="#333"/>
  <rect x="230" y="250" width="50" height="4" rx="2" fill="#999"/>
  <rect x="120" y="260" width="100" height="4" rx="2" fill="#0EA5E9"/>
  <rect x="120" y="270" width="160" height="4" rx="2" fill="#666"/>
  <rect x="120" y="280" width="100" height="4" rx="2" fill="#0EA5E9"/>
  
  <!-- Gradient Definition -->
  <defs>
    <linearGradient id="blue-gradient" x1="0" y1="0" x2="300" y2="80" gradientUnits="userSpaceOnUse">
      <stop offset="0" stop-color="#0EA5E9"/>
      <stop offset="1" stop-color="#38BDF8"/>
    </linearGradient>
  </defs>
</svg>
