
<svg width="300" height="400" viewBox="0 0 300 400" fill="none" xmlns="http://www.w3.org/2000/svg">
  <rect width="300" height="400" fill="white"/>
  
  <!-- Header -->
  <rect x="75" y="30" width="150" height="10" rx="2" fill="#333"/>
  <rect x="100" y="50" width="100" height="6" rx="2" fill="#666"/>
  <rect x="50" y="70" width="200" height="4" rx="2" fill="#999"/>
  
  <!-- Summary -->
  <rect x="30" y="100" width="80" height="8" rx="2" fill="#333"/>
  <rect x="30" y="102" width="240" height="1" fill="#ddd"/>
  <rect x="30" y="115" width="240" height="4" rx="2" fill="#666"/>
  <rect x="30" y="125" width="240" height="4" rx="2" fill="#666"/>
  
  <!-- Experience -->
  <rect x="30" y="160" width="80" height="8" rx="2" fill="#333"/>
  <rect x="30" y="162" width="240" height="1" fill="#ddd"/>
  
  <rect x="30" y="180" width="100" height="6" rx="2" fill="#333"/>
  <rect x="200" y="180" width="70" height="4" rx="2" fill="#999"/>
  <rect x="30" y="195" width="80" height="4" rx="2" fill="#666"/>
  <rect x="200" y="195" width="40" height="4" rx="2" fill="#999"/>
  <rect x="30" y="210" width="240" height="4" rx="2" fill="#666"/>
  
  <rect x="30" y="230" width="100" height="6" rx="2" fill="#333"/>
  <rect x="200" y="230" width="70" height="4" rx="2" fill="#999"/>
  <rect x="30" y="245" width="80" height="4" rx="2" fill="#666"/>
  <rect x="200" y="245" width="40" height="4" rx="2" fill="#999"/>
  <rect x="30" y="260" width="240" height="4" rx="2" fill="#666"/>
  
  <!-- Education -->
  <rect x="30" y="290" width="80" height="8" rx="2" fill="#333"/>
  <rect x="30" y="292" width="240" height="1" fill="#ddd"/>
  
  <rect x="30" y="310" width="100" height="6" rx="2" fill="#333"/>
  <rect x="200" y="310" width="70" height="4" rx="2" fill="#999"/>
  <rect x="30" y="325" width="120" height="4" rx="2" fill="#666"/>
  <rect x="30" y="340" width="240" height="4" rx="2" fill="#666"/>
</svg>
