
<svg width="300" height="400" viewBox="0 0 300 400" fill="none" xmlns="http://www.w3.org/2000/svg">
  <rect width="300" height="400" fill="#f5f5f7"/>
  <!-- Header -->
  <rect width="300" height="80" fill="#9b87f5"/>
  <rect x="20" y="25" width="150" height="10" rx="2" fill="white"/>
  <rect x="20" y="45" width="100" height="6" rx="2" fill="#e0d8ff"/>
  
  <!-- Left Column -->
  <rect x="20" y="100" width="160" height="10" rx="2" fill="#9b87f5"/>
  <rect x="20" y="120" width="160" height="40" rx="2" fill="#f0f0f2"/>
  
  <rect x="20" y="180" width="160" height="10" rx="2" fill="#9b87f5"/>
  <rect x="20" y="200" width="160" height="60" rx="2" fill="#f0f0f2"/>
  
  <rect x="20" y="280" width="160" height="10" rx="2" fill="#9b87f5"/>
  <rect x="20" y="300" width="160" height="80" rx="2" fill="#f0f0f2"/>
  
  <!-- Right Column -->
  <rect x="200" y="100" width="80" height="10" rx="2" fill="#9b87f5"/>
  <rect x="200" y="120" width="80" height="80" rx="2" fill="#f0f0f2"/>
  
  <rect x="200" y="220" width="80" height="10" rx="2" fill="#9b87f5"/>
  <rect x="200" y="240" width="80" height="50" rx="2" fill="#f0f0f2"/>
  
  <!-- Skills Tags -->
  <rect x="205" y="245" width="30" height="15" rx="7.5" fill="#d6bcfa"/>
  <rect x="240" y="245" width="35" height="15" rx="7.5" fill="#d6bcfa"/>
  <rect x="205" y="265" width="40" height="15" rx="7.5" fill="#d6bcfa"/>
  <rect x="250" y="265" width="25" height="15" rx="7.5" fill="#d6bcfa"/>
</svg>
